<?xml version="1.0" encoding="UTF-8" standalone="no"?>
<!-- Created with Inkscape (http://www.inkscape.org/) -->

<svg
   width="137.715mm"
   height="42.542mm"
   viewBox="-6 -5 159.80922 49.367187"
   version="1.1"
   id="svg1"
   xml:space="preserve"
   inkscape:version="1.4 (e7c3feb1, 2024-10-09)"
   sodipodi:docname="logo_vibrant.svg"
   inkscape:export-filename="logo_vibrant.png"
   inkscape:export-xdpi="200"
   inkscape:export-ydpi="200"
   xmlns:inkscape="http://www.inkscape.org/namespaces/inkscape"
   xmlns:sodipodi="http://sodipodi.sourceforge.net/DTD/sodipodi-0.dtd"
   xmlns:xlink="http://www.w3.org/1999/xlink"
   xmlns="http://www.w3.org/2000/svg"
   xmlns:svg="http://www.w3.org/2000/svg"><sodipodi:namedview
     id="namedview1"
     pagecolor="#ffffff"
     bordercolor="#111111"
     borderopacity="1"
     inkscape:showpageshadow="0"
     inkscape:pageopacity="0"
     inkscape:pagecheckerboard="false"
     inkscape:deskcolor="#d1d1d1"
     inkscape:document-units="mm"
     inkscape:zoom="1.3175579"
     inkscape:cx="416.3005"
     inkscape:cy="66.410745"
     inkscape:window-width="2560"
     inkscape:window-height="1440"
     inkscape:window-x="1080"
     inkscape:window-y="0"
     inkscape:window-maximized="0"
     inkscape:current-layer="layer1" /><defs
     id="defs1"><linearGradient
       id="linearGradient899"
       inkscape:collect="always"><stop
         style="stop-color:#fa6800;stop-opacity:1;"
         offset="0"
         id="stop899" /><stop
         style="stop-color:#dd1617;stop-opacity:1;"
         offset="0.5"
         id="stop902" /><stop
         style="stop-color:#c6005c;stop-opacity:1;"
         offset="1"
         id="stop900" /></linearGradient><linearGradient
       id="linearGradient871"
       inkscape:collect="always"><stop
         style="stop-color:#1cde10;stop-opacity:1;"
         offset="0"
         id="stop871" /><stop
         style="stop-color:#1cde10;stop-opacity:0;"
         offset="1"
         id="stop872" /></linearGradient><linearGradient
       id="linearGradient24"
       inkscape:swatch="gradient"><stop
         style="stop-color:#1cde10;stop-opacity:1;"
         offset="0"
         id="stop25" /><stop
         style="stop-color:#1cde10;stop-opacity:0;"
         offset="1"
         id="stop26" /></linearGradient><linearGradient
       inkscape:collect="always"
       xlink:href="#linearGradient871"
       id="linearGradient872"
       x1="43.958839"
       y1="164.4752"
       x2="42.215595"
       y2="160.34953"
       gradientUnits="userSpaceOnUse"
       gradientTransform="translate(-0.02293518,0.03424392)" /><linearGradient
       inkscape:collect="always"
       xlink:href="#linearGradient899"
       id="linearGradient900"
       x1="105.51861"
       y1="168.1983"
       x2="107.91232"
       y2="154.59093"
       gradientUnits="userSpaceOnUse" /><linearGradient
       inkscape:collect="always"
       xlink:href="#linearGradient899"
       id="linearGradient903"
       gradientUnits="userSpaceOnUse"
       x1="105.51861"
       y1="168.1983"
       x2="107.91232"
       y2="154.59093" /><linearGradient
       inkscape:collect="always"
       xlink:href="#linearGradient899"
       id="linearGradient904"
       gradientUnits="userSpaceOnUse"
       x1="105.51861"
       y1="168.1983"
       x2="107.91232"
       y2="154.59093" /><linearGradient
       inkscape:collect="always"
       xlink:href="#linearGradient899"
       id="linearGradient905"
       gradientUnits="userSpaceOnUse"
       x1="105.51861"
       y1="168.1983"
       x2="107.91232"
       y2="154.59093" /><linearGradient
       inkscape:collect="always"
       xlink:href="#linearGradient899"
       id="linearGradient906"
       gradientUnits="userSpaceOnUse"
       x1="105.51861"
       y1="168.1983"
       x2="107.91232"
       y2="154.59093" /><linearGradient
       inkscape:collect="always"
       xlink:href="#linearGradient899"
       id="linearGradient907"
       gradientUnits="userSpaceOnUse"
       x1="105.51861"
       y1="168.1983"
       x2="107.91232"
       y2="154.59093" /><linearGradient
       inkscape:collect="always"
       xlink:href="#linearGradient899"
       id="linearGradient908"
       gradientUnits="userSpaceOnUse"
       x1="105.51861"
       y1="168.1983"
       x2="107.91232"
       y2="154.59093" /><linearGradient
       inkscape:collect="always"
       xlink:href="#linearGradient899"
       id="linearGradient909"
       gradientUnits="userSpaceOnUse"
       x1="105.51861"
       y1="168.1983"
       x2="107.91232"
       y2="154.59093" /></defs><g
     inkscape:label="Layer 1"
     inkscape:groupmode="layer"
     id="layer1"
     transform="translate(-32.228239,-144.12827)"><g
       id="g899"
       style="fill:url(#linearGradient900)"><path
         style="font-variation-settings:'wght' 400;fill:url(#linearGradient903);fill-opacity:0.459016;stroke:none;stroke-width:0.564999;stroke-linecap:square;stroke-linejoin:round;stroke-dasharray:none;stroke-dashoffset:0;stroke-opacity:1;paint-order:fill markers stroke"
         d="m 66.178557,163.36211 0.807921,-1.5058 c 0.180774,-0.0674 0.514867,-0.68198 0.7723,-1.27321 l 0.926335,-2.86075 c 0.07273,-0.35113 0.04183,-0.73681 0.02724,-1.11705 l -0.980826,-2.86074 c -0.358669,-0.5529 -1.131925,-0.7534 -2.097879,-0.79011 -0.235781,-0.47054 -0.01163,-0.38259 0.163471,-0.35419 l 0.953582,-2.80626 c 0.151978,-0.39816 0.14567,-0.77653 0.05449,-1.14429 l -0.980827,-2.86075 c -0.008,-0.5317 -0.0924,-0.71939 -0.190717,-0.8446 l -4.35923,0.0545 c -0.222438,0.12267 -0.198571,0.49164 -0.217961,0.81736 l -1.00807,2.80625 c -0.03079,0.29331 -0.129235,0.46486 0.05449,1.1443 l 1.008073,2.8335 c 0.290615,-0.17556 0.58123,-0.0688 0.871845,0.0545 0.408678,0.18685 0.817356,0.25231 1.226034,0.27245 -0.07908,0.204 -0.169754,0.35002 -0.190717,0.8446 l -2.896407,6.79681 c -0.167278,0.46617 -0.356507,0.98908 -0.719643,1.31303 l -0.972148,1.35091 0.934273,1.55291 c 0.540707,0.34664 0.655832,0.62464 0.732266,0.8964 0,0 0.984772,2.77757 1.022652,2.82807 0.279346,0.12088 0.59346,0.0853 0.918182,0.002 0.298559,0.19893 0.675199,0.31377 1.171543,0.2997 h 2.424821 c 0.136883,-0.0608 0.202841,-0.17482 0.217962,-0.32695 l 0.965003,-2.79352 c 0.249244,-0.73005 0.265738,-0.7167 0.179295,-0.88458 z"
         id="path33"
         sodipodi:nodetypes="ccccccccccccccccccccccccccccccccc" /><path
         style="font-variation-settings:'wght' 400;fill:url(#linearGradient904);fill-opacity:0.459016;stroke:none;stroke-width:0.564999;stroke-linecap:square;stroke-linejoin:round;stroke-dasharray:none;stroke-dashoffset:0;stroke-opacity:1;paint-order:fill markers stroke"
         d="m 38.456098,144.9943 c -0.14194,0.1062 -0.304714,0.12907 -0.29845,0.82809 l -0.991075,2.74985 c -0.399285,0.70263 -0.370011,1.14 -0.133279,1.44776 l 0.961904,1.36886 -0.924907,1.44286 c -0.249628,0.14943 -0.499433,0.30185 -0.776922,0.92491 l -1.072894,2.81171 c -0.07075,0.28968 -0.134377,0.58719 0.07399,1.18389 l 4.846515,10.76592 c 0.07918,0.32027 0.12676,0.27589 0.170204,0.31612 l 10.088629,7.8e-4 c 0.0347,0.0306 0.08652,-0.10151 0.14804,-0.3257 l 4.872598,-10.72013 c 0.134237,-0.59882 0.09758,-0.87904 -0.037,-1.25787 l -1.019802,-2.76155 c -0.108959,-0.35994 -0.316693,-0.6972 -0.682027,-0.90108 l -0.88791,-1.62784 0.850913,-1.25788 c 0.197838,-0.22217 0.08977,-0.73324 -0.110987,-1.33186 l -1.059569,-2.81429 c -0.146339,-0.80608 -0.105745,-0.85022 -0.168202,-0.8519 L 49.908,144.87751 c -0.783439,0.0838 -1.568886,0.16065 -2.145787,0.96191 l -1.072891,2.81172 c -1.921528,0.81268 -2.108196,1.1144 -2.008118,1.33167 l 0.972222,1.25807 -0.887913,1.55384 c -0.288248,0.1057 -0.571338,0.21268 1.886813,0.9989 l 1.109887,2.81172 c 0.07041,0.39503 0.05075,0.7762 -0.03699,1.14689 l -1.035897,2.81171 c -0.03612,0.25224 -0.07224,0.33567 -0.108361,0.29598 l -2.444384,-0.037 c -0.145553,-0.008 -0.183233,-0.17107 -0.221977,-0.33297 l -0.9989,-2.73772 c -0.106605,-0.41157 -0.02248,-0.83436 0.07399,-1.25788 l 0.887912,-2.73772 c 0.190542,-0.67365 0.578297,-0.7087 0.768514,-0.92554 l 0.748334,-1.59021 -0.718897,-1.19926 c -0.676092,-0.31316 -0.717453,-0.82013 -0.797951,-1.39048 l -0.919652,-2.81737 c -0.130597,-0.23477 -0.759675,-0.78215 -2.151041,-0.91926 z"
         id="path19"
         sodipodi:nodetypes="ccccccccccccccccccccccccccccccccccccccccccccc" /><path
         id="path895-8"
         style="font-variation-settings:'wght' 400;fill:url(#linearGradient905);fill-opacity:0.459016;stroke:none;stroke-width:0.564999;stroke-linecap:square;stroke-linejoin:round;stroke-dasharray:none;stroke-dashoffset:0;stroke-opacity:1;paint-order:fill markers stroke"
         d="m 76.581889,144.92862 c -0.462291,0.15375 -0.912791,0.33 -1.178223,0.87747 h -0.902787 l -1.078487,2.80861 c -0.309171,0.72712 -0.205574,1.04129 -0.125574,1.37925 l 0.877983,1.50481 -0.928109,1.32912 c -0.1947,0.18286 -0.378234,0.33188 -0.702283,0.90279 l -1.027844,2.80861 c -0.157964,0.35126 -0.1516,0.73529 0.02481,1.15342 l 0.978234,2.85874 c 0.04886,0.64495 0.302313,1.08541 0.752409,1.32912 l 0.902788,1.37924 -0.902788,1.50482 c -0.155323,0.15727 -0.141659,0.48349 0.185002,0.96118 l 0.91829,2.75022 0.977718,0.0253 c 0.45158,0.0416 0.921081,0.0652 1.17874,0.30076 H 84.7571 c 0.437927,-0.34411 0.773361,-0.38038 1.078488,-0.32608 l 1.028361,0.0248 0.877465,-2.80862 c 0.184931,-0.39986 0.394883,-0.76682 0.777731,-0.90279 l 1.228348,-0.95239 -1.203544,-1.93167 c -0.563912,-0.31312 -0.641706,-0.89145 -0.773923,-1.33681 l -0.981525,-2.85105 c -0.306541,-0.76026 -0.02916,-0.83965 0.02532,-1.17873 l 0.977719,-2.7833 c 0.110855,-0.37652 0.308975,-0.70101 0.752408,-0.87798 l 0.827857,-1.40457 -0.852661,-1.52962 c -0.596194,-0.0809 -0.651414,-0.70288 -0.727604,-1.30379 l -0.952914,-2.85874 c 0.142332,-0.27585 0.01359,-0.55201 -0.175183,-0.82786 z m 3.751709,4.00182 4.368209,0.007 c -0.03011,0.36974 -0.160703,0.81823 -0.02946,1.06247 l 0.904854,1.44384 -0.904854,1.44332 -1.885156,0.03 -2.438611,-0.03 -0.838192,-1.54099 0.838192,-1.38389 c 0.15145,-0.34394 0.01311,-0.68753 -0.01499,-1.03147 z m 0.05943,11.89075 2.43551,0.0114 c 0.649057,0.0418 1.289181,0.29327 1.908411,1.02113 l 0.886767,1.48208 -0.898136,1.4366 h -4.35529 l -0.740523,-1.65003 0.77463,-1.23506 c 0.244256,-0.0579 0.0097,-0.68987 -0.01137,-1.06609 z"
         sodipodi:nodetypes="ccccccccccccccccccccccccccccccccccccccccccccccccccccccc" /><path
         id="path896"
         style="font-variation-settings:'wght' 400;fill:url(#linearGradient906);fill-opacity:0.459016;stroke:none;stroke-width:0.564999;stroke-linecap:square;stroke-linejoin:round;stroke-dasharray:none;stroke-dashoffset:0;stroke-opacity:1;paint-order:fill markers stroke"
         d="m 95.584041,144.97472 c -0.03581,0.23055 0.01788,0.30006 -0.248258,0.85307 l -0.989087,2.82464 c -0.125977,0.47252 -0.748217,1.08911 -0.181901,1.36064 l 0.332279,0.29248 0.672311,1.31362 -0.989087,1.2578 c -0.28786,0.20735 -0.563266,0.43961 -0.727604,0.89401 l -1.005107,2.83238 c -0.198449,0.37724 -0.12394,0.75447 0,1.13171 l 1.020105,2.84014 c 0.129368,0.42597 0.293353,0.92703 0.715918,1.32912 l 0.851416,1.48725 -0.84646,1.39268 c -0.05357,0.17762 -0.18279,0.43811 0.14211,0.88573 l 1.02061,2.84065 c 0.02035,0.13089 0.06122,0.24537 0.205672,0.27699 l 2.476335,0.0155 c 0.695645,0.0186 0.884024,-0.14037 1.091923,-0.29249 0.248371,0.0524 0.453279,0.13953 0.941544,0 l 0.99684,-2.84013 c 0.0331,-0.47099 0.69146,-0.96029 0.71985,-0.9338 0,0 0.405,0.72841 1.04438,0.46302 0.63938,-0.26539 1.06313,0.436 1.04438,0.46303 l 0.98909,2.84013 c 0.0191,0.12896 0.0615,0.24622 0.22944,0.30076 l 2.47634,-0.008 c 0.42446,-0.006 0.80805,-0.0782 1.10742,-0.28474 0.307,0.14371 0.62549,0.14953 0.95757,-0.008 l 0.95705,-2.83238 c 0.18973,-0.51566 0.0888,-0.79881 0.0398,-1.12345 l -2.93523,-6.80423 c -0.14282,-0.4936 -0.12947,-0.78607 -0.13487,-0.87023 0.11907,-0.016 0.18533,-0.12003 0.22944,-0.26097 l 0.88625,-2.84065 c 0.16989,-0.4229 0.42325,-0.7206 0.74363,-0.91778 l 0.27698,-0.21342 0.68833,-1.05988 -0.96531,-1.57459 c -0.21813,-0.26376 -0.39269,-0.33735 -0.72761,-1.33738 l -0.95756,-2.83239 c -0.31093,-0.094 -0.63708,-0.0814 -0.97307,0 -0.0342,-0.54213 -0.31494,-0.89524 -1.09967,-0.86196 z m 5.708489,3.94849 4.3651,0.0284 c 0.0923,0.1411 0.17066,0.31404 -0.0192,0.53302 -0.18991,0.21898 -0.24272,0.2882 -0.0185,0.51085 l 0.95033,1.449 -0.96893,1.41129 c -0.32537,0.30087 -0.71582,0.59708 -0.7059,0.9219 l -0.92191,2.83187 c -0.0299,0.12184 -0.0147,0.25497 -0.23513,0.32918 l -2.44584,-0.0563 c -0.61453,-5e-4 -1.20451,-0.0118 -1.20458,-0.28267 l 0.96893,-2.83135 c 0.14523,-0.25135 0.2757,-0.49638 0.76223,-0.894 l 0.88418,-1.27951 -0.90279,-1.58957 c -0.74575,-0.57206 -0.44818,-0.76156 -0.50797,-1.0821 z"
         sodipodi:nodetypes="cccccccccccccccccccccczccccccccccccccccccccccczcccccccccccccc" /><path
         id="path897"
         style="font-variation-settings:'wght' 400;fill:url(#linearGradient907);fill-opacity:0.459016;stroke:none;stroke-width:0.564999;stroke-linecap:square;stroke-linejoin:round;stroke-dasharray:none;stroke-dashoffset:0;stroke-opacity:1;paint-order:fill markers stroke"
         d="m 118.43256,144.95239 c -0.0409,0.25502 -0.008,0.4276 -0.21445,0.86713 l -0.96997,2.84996 c -0.32392,0.29363 -0.62287,0.60368 -0.94464,1.13326 l -0.93586,2.82464 c -0.19765,0.35548 -0.12353,0.74719 -0.0258,1.14205 l 0.9617,2.8329 c 0.23231,0.37775 0.20477,0.75551 0.017,1.13326 l -0.99581,2.83342 c -0.43354,1.36591 -0.71485,1.28704 -0.67799,1.30483 l -0.99581,1.39061 0.97824,1.53686 c 0.51927,0.24698 0.51271,0.57284 0.66146,0.8754 l 0.97875,2.83342 c 0.30894,0.13909 0.62401,0.18023 0.95291,0 0.37475,0.25342 0.78426,0.34461 1.21905,0.31781 l 2.45515,-0.008 c 0.10148,-0.0368 0.14484,-0.14334 0.14624,-0.30024 l 0.97875,-2.8329 c 0.43506,-0.92068 0.27306,-0.77164 0.25735,-0.8847 l -0.95291,-1.51929 0.93586,-1.40818 c 0.30255,-0.1877 0.0731,-0.65407 -0.0171,-1.04748 h 2.47221 c -0.0767,0.37318 -0.39139,0.81877 -0.0512,1.06505 l 0.80666,1.51928 -0.80666,1.35651 c -0.18034,0.0338 -0.04,0.41875 0.1974,0.91002 l 0.95291,2.8329 c 0.0255,0.22304 0.1376,0.25135 0.2403,0.30076 l 2.45515,-0.009 c 0.63694,0.0246 0.90229,-0.12764 1.12499,-0.30024 0.40491,0.13456 0.67641,0.0785 0.94413,0.0171 l 0.95291,-2.84168 c 0.12374,-0.39191 0.35181,-0.7093 0.75551,-0.90124 l 0.88419,-1.35651 -0.89246,-1.53685 c -0.30312,-0.2641 -0.52088,-0.7416 -0.70435,-1.30483 l -0.9958,-2.85048 c -0.13773,-0.50054 -0.078,-0.83401 0.0429,-1.11569 l 0.92708,-2.84169 c 0.12354,-0.30128 0.30398,-0.56274 0.0429,-1.13326 l -2.9099,-6.80837 c -0.14989,-0.3487 -0.17223,-0.61769 -0.1633,-0.86713 z m 3.81114,7.96799 h 2.46755 c -0.077,0.40375 -0.26419,0.90301 -0.0331,1.03973 l 0.94929,1.59267 -0.93276,1.3534 -2.44274,-0.0413 -0.84181,-1.25418 0.82527,-1.70016 c 0.17393,-8.6e-4 0.1178,-0.44415 0.008,-0.99012 z"
         sodipodi:nodetypes="ccccccccccccccccccccccccccccccccccccccccccccccccccccccc" /><path
         style="font-variation-settings:'wght' 400;fill:url(#linearGradient908);fill-opacity:0.459016;stroke:none;stroke-width:0.564999;stroke-linecap:square;stroke-linejoin:round;stroke-dasharray:none;stroke-dashoffset:0;stroke-opacity:1;paint-order:fill markers stroke"
         d="m 139.39154,144.97519 c 0.0124,0.21241 -0.0326,0.47271 -0.22367,0.85472 l -0.96655,2.83576 c -0.27349,0.58443 -0.56432,1.18071 -0.20769,1.334 l 0.91863,1.50176 -0.91863,1.34998 c -0.28324,0.23799 -0.54508,0.51164 -0.72691,0.91863 l -0.99851,2.83576 c -0.1478,0.70723 -0.0249,0.82783 0.016,1.12631 l 0.95857,2.84375 c 0.13907,0.40026 0.29498,0.80801 0.7349,1.34199 l 0.98253,1.44584 -0.95857,1.42187 c -0.161,0.14652 -0.047,0.47636 0.1997,0.89467 l 0.96656,2.83576 c 0.0151,0.13284 0.10701,0.21445 0.22366,0.27958 l 2.46033,-0.008 c 0.4432,0.0384 0.77558,-0.12275 1.11033,-0.27959 0.2928,0.13631 0.62166,0.0923 0.95857,0.008 l 0.94498,-2.85754 c 0.85345,-1.2455 -3.04896,-9.17806 -0.95747,-7.94922 l 4.82291,10.81445 c 0.3015,0.1075 0.62264,0.0579 0.94608,-0.0101 0.6231,0.38804 0.83731,0.28541 1.14608,0.29626 l 2.4715,0.0312 c 0.10362,-0.0782 0.20058,-0.16179 0.19491,-0.32745 l 0.91999,-2.84573 c 0.25982,-0.42999 0.40302,-0.76791 0.24169,-0.86541 0,0 -0.81864,-1.31761 -0.82643,-1.34879 -0.008,-0.0312 0.84982,-1.5593 0.84982,-1.5593 0.37255,-0.39969 0.51368,-0.8688 0.6705,-1.33321 l 0.95897,-2.83013 c 0.0975,-0.3486 0.081,-0.72978 0.0234,-1.12269 l -0.98693,-2.84889 c -0.14456,-0.35665 -0.32317,-0.68606 -0.6879,-0.86658 l -0.92911,-1.30433 0.93805,-1.61702 c 0.30348,-0.30266 0.0252,-0.80668 -0.23461,-1.30433 l -0.98039,-2.83201 c -0.14571,-0.2723 -0.16021,-0.56334 -0.15187,-0.85765 l -4.37756,-0.009 c -0.0643,0.16886 0.006,0.52054 -0.19887,0.87435 l -0.98932,2.82424 c -0.96987,2.40738 2.93543,8.73762 1.01865,7.92864 l -4.83338,-10.76958 c -0.12211,-0.31567 -0.12729,-0.59236 -0.15188,-0.87552 z"
         id="path898"
         sodipodi:nodetypes="ccccccccccccccccccccccccccccccccccccccccccccccc" /><path
         style="font-variation-settings:'wght' 400;fill:url(#linearGradient909);fill-opacity:0.459016;stroke:none;stroke-width:0.564999;stroke-linecap:square;stroke-linejoin:round;stroke-dasharray:none;stroke-dashoffset:0;stroke-opacity:1;paint-order:fill markers stroke"
         d="m 164.158,168.8122 6.29489,-0.0223 c 0.14322,-0.0967 0.1353,-0.19346 0.13393,-0.29019 l 0.98218,-2.83493 c 0.19523,-0.53789 0.0692,-0.81879 -0.0223,-1.12728 l -0.93754,-2.84609 c -0.20316,-0.53775 -0.46418,-0.69948 -0.72547,-0.8594 l -0.92638,-1.47328 0.95986,-1.43978 c 0.40143,-0.25419 0.48833,-0.82007 0.66967,-1.32818 l 0.98218,-2.83493 c 0.19847,-0.39971 0.22303,-0.77645 0.21206,-0.84824 l 4.37517,0.0223 c 0.6264,-3.5e-4 0.88927,-0.14421 1.10495,-0.29019 0.36202,0.18542 0.69083,0.17163 0.99334,0 l 0.95986,-2.84609 c 0.24894,-0.45493 0.14211,-0.80039 0.0112,-1.13844 l -0.99335,-2.83493 c -0.37689,-0.39899 -0.72538,-0.80801 -2.08713,-0.8594 h -13.88445 c -0.48967,0.0899 -0.83853,0.19685 -1.19424,0.87057 -0.4671,-0.22327 -0.71678,-0.10489 -0.98218,-0.0112 l -0.93754,2.84609 c -0.11196,0.30634 -0.17153,0.64412 0.0112,1.12727 l 0.95985,2.8461 c 0.12628,0.62548 1.2245,0.38315 2.14294,0.30135 0.71952,0.2214 2.05454,0.22737 1.6965,0.82592 l -1.00451,2.83493 c -0.11175,0.57753 -0.33846,1.00728 -0.6585,1.31701 l -0.93754,1.30586 0.90405,1.62952 c 0.40067,0.23398 0.61073,0.52515 0.71432,0.84825 l 0.97101,2.83493 c 0.17137,0.43201 0.11287,0.79505 -0.0112,1.13843 l -0.95986,2.82377 c 0.29719,0.23371 0.70756,0.31654 1.18303,0.31255 z"
         id="path899"
         sodipodi:nodetypes="cccccccccccccccccccccccccccccccccccc" /></g><g
       id="text11"
       style="font-size:3.175px;font-family:'Andale Mono';-inkscape-font-specification:'Andale Mono, @wght=400';font-variation-settings:'wght' 400;fill:url(#linearGradient872);stroke:#000000;stroke-width:0.564999;stroke-linecap:square;stroke-linejoin:round;paint-order:fill markers stroke"
       aria-label="   _     _     __      _____     __ __       _____      __   __     _______   &#10;  /_/\ /\_\   /\_\   /\  __/\   /_/\__/\    /\___/\    /_/\ /\_\  /\_______)\ &#10;  ) ) ) ( (   \/_/   ) )(_ ) )  ) ) ) ) )  / / _ \ \   ) ) \ ( (  \(___  __\/ &#10; /_/ / \ \_\   /\_\ / / __/ /  /_/ /_/_/   \ \(_)/ /  /_/   \ \_\   / / /     &#10; \ \ \_/ / /  / / / \ \  _\ \  \ \ \ \ \   / / _ \ \  \ \ \   / /  ( ( (      &#10;  \ \   / /  ( (_(   ) )(__) )  )_) ) \ \ ( (_( )_) )  )_) \ (_(    \ \ \     &#10;   \_\_/_/    \/_/   \/____\/   \_\/ \_\/  \/_/ \_\/   \_\/ \/_/    /_/_/     &#10;                                                                              "><path
         style="stroke-width:0.565"
         d="m 40.573339,145.1022 h -1.90531 v -0.20309 h 1.90531 z m 11.431861,0 h -1.90531 v -0.20309 h 1.90531 z m 11.43186,0 h -1.90531 v -0.20309 h 1.90531 z m 1.905309,0 h -1.90531 v -0.20309 h 1.90531 z m 13.337172,0 h -1.90531 v -0.20309 h 1.90531 z m 1.905308,0 h -1.90531 v -0.20309 h 1.90531 z m 1.905311,0 h -1.90531 v -0.20309 h 1.90531 z m 1.905308,0 h -1.90531 v -0.20309 h 1.90531 z m 1.905312,0 h -1.90531 v -0.20309 h 1.90531 z m 11.431862,0 h -1.90531 v -0.20309 h 1.90531 z m 1.905307,0 h -1.90531 v -0.20309 h 1.90531 z m 3.810621,0 h -1.90531 v -0.20309 h 1.90531 z m 1.90531,0 h -1.90531 v -0.20309 h 1.90531 z m 15.24248,0 h -1.90531 v -0.20309 h 1.90531 z m 1.90531,0 h -1.90531 v -0.20309 h 1.90531 z m 1.90531,0 h -1.90531 v -0.20309 h 1.90531 z m 1.90531,0 h -1.90531 v -0.20309 h 1.90531 z m 1.90531,0 h -1.90531 v -0.20309 h 1.90531 z m 13.33717,0 h -1.90531 v -0.20309 h 1.90531 z m 1.90531,0 h -1.90531 v -0.20309 h 1.90531 z m 7.62124,0 h -1.90531 v -0.20309 h 1.90531 z m 1.90531,0 h -1.90531 v -0.20309 h 1.90531 z m 11.43186,0 h -1.90531 v -0.20309 h 1.90531 z m 1.9053,0 h -1.90531 v -0.20309 h 1.90531 z m 1.90532,0 h -1.90531 v -0.20309 h 1.90531 z m 1.90531,0 h -1.90531 v -0.20309 h 1.90531 z m 1.90532,0 h -1.90531 v -0.20309 h 1.90531 z m 1.9053,0 h -1.90531 v -0.20309 h 1.90531 z m 1.9053,0 h -1.90531 v -0.20309 h 1.90531 z"
         id="path909" /><path
         style="stroke-width:0.565"
         d="m 38.274255,146.1502 -0.95033,2.27117 h -0.227893 l 0.945679,-2.27117 z m 2.299084,2.92075 h -1.90531 v -0.20309 h 1.90531 z m 1.511536,-2.92075 -0.95033,2.27117 h -0.227893 l 0.945679,-2.27117 z m 1.902209,2.27117 h -0.229443 l -0.948779,-2.27117 h 0.230993 z m 3.813721,-2.27117 -0.95033,2.27117 h -0.227893 l 0.945679,-2.27117 z m 1.902209,2.27117 h -0.229443 l -0.948779,-2.27117 h 0.230993 z m 2.302186,0.64958 h -1.90531 v -0.20309 h 1.90531 z m 1.508434,-0.64958 h -0.229443 l -0.948779,-2.27117 h 0.230993 z m 7.624342,-2.27117 -0.95033,2.27117 h -0.227893 l 0.945679,-2.27117 z m 1.902209,2.27117 h -0.229444 l -0.948779,-2.27117 h 0.230994 z m 2.302184,0.64958 h -1.90531 v -0.20309 h 1.90531 z m 1.508435,-0.64958 h -0.229443 l -0.94878,-2.27117 h 0.230994 z m 7.624339,-2.27117 -0.950329,2.27117 h -0.227893 l 0.945678,-2.27117 z m 1.902211,2.27117 h -0.229443 l -0.948779,-2.27117 h 0.230993 z m 6.112806,0.64958 h -1.90531 v -0.20309 h 1.90531 z m 1.905308,0 h -1.90531 v -0.20309 h 1.90531 z m 1.511537,-2.92075 -0.950329,2.27117 h -0.227893 l 0.945678,-2.27117 z m 1.902211,2.27117 h -0.229443 l -0.948779,-2.27117 h 0.230993 z m 7.62434,-2.27117 -0.95033,2.27117 h -0.227893 l 0.945679,-2.27117 z m 2.299086,2.92075 h -1.90531 v -0.20309 h 1.90531 z m 1.511533,-2.92075 -0.95033,2.27117 h -0.227893 l 0.945679,-2.27117 z m 1.902215,2.27117 h -0.22945 l -0.948777,-2.27117 h 0.230997 z m 2.30218,0.64958 h -1.90531 v -0.20309 h 1.90531 z m 1.90531,0 h -1.90531 v -0.20309 h 1.90531 z m 1.51153,-2.92075 -0.95033,2.27117 h -0.22789 l 0.94568,-2.27117 z m 1.90221,2.27117 h -0.22944 l -0.94878,-2.27117 h 0.231 z m 9.52966,-2.27117 -0.95033,2.27117 h -0.2279 l 0.94568,-2.27117 z m 1.90221,2.27117 h -0.22945 l -0.94878,-2.27117 h 0.231 z m 2.30218,0.64958 h -1.90531 v -0.20309 h 1.90531 z m 1.90531,0 h -1.90531 v -0.20309 h 1.90531 z m 1.90531,0 h -1.90531 v -0.20309 h 1.90531 z m 1.51154,-2.92075 -0.95033,2.27117 h -0.2279 l 0.94568,-2.27117 z m 1.90221,2.27117 h -0.22945 l -0.94878,-2.27117 h 0.231 z m 9.52965,-2.27117 -0.95033,2.27117 h -0.22789 l 0.94567,-2.27117 z m 2.29908,2.92075 h -1.90531 v -0.20309 h 1.90531 z m 1.51153,-2.92075 -0.95033,2.27117 h -0.22789 l 0.94568,-2.27117 z m 1.90221,2.27117 h -0.22944 l -0.94878,-2.27117 h 0.231 z m 3.81373,-2.27117 -0.95033,2.27117 h -0.22789 l 0.94567,-2.27117 z m 1.90221,2.27117 h -0.22944 l -0.94878,-2.27117 h 0.23099 z m 2.30218,0.64958 h -1.90531 v -0.20309 h 1.90531 z m 1.50843,-0.64958 h -0.22944 l -0.94878,-2.27117 h 0.231 z m 5.71904,-2.27117 -0.95033,2.27117 h -0.22789 l 0.94568,-2.27117 z m 1.9022,2.27117 h -0.22944 l -0.94878,-2.27117 h 0.23099 z m 2.30219,0.64958 h -1.90531 v -0.20309 h 1.90531 z m 1.9053,0 h -1.90531 v -0.20309 h 1.90531 z m 1.90532,0 h -1.90531 v -0.20309 h 1.90531 z m 1.90531,0 h -1.90531 v -0.20309 h 1.90531 z m 1.90532,0 h -1.90531 v -0.20309 h 1.90531 z m 1.9053,0 h -1.90531 v -0.20309 h 1.90531 z m 1.9053,0 h -1.90531 v -0.20309 h 1.90531 z m 0.51471,-2.91765 q 0.34727,0.262 0.5271,0.60771 0.17983,0.34417 0.17983,0.73329 0,0.38602 -0.18138,0.73329 -0.17983,0.34726 -0.52555,0.60926 l -0.0961,-0.13332 q 0.28371,-0.25115 0.40773,-0.5333 0.12557,-0.28371 0.12557,-0.67903 0,-0.40773 -0.12867,-0.68213 -0.12868,-0.2744 -0.40463,-0.52245 z m 2.89904,2.26807 h -0.22944 l -0.94878,-2.27117 h 0.23099 z"
         id="path910" /><path
         style="stroke-width:0.565"
         d="m 37.277416,150.12205 q 0.347266,0.262 0.5271,0.60771 0.179834,0.34417 0.179834,0.73329 0,0.38602 -0.181385,0.73329 -0.179833,0.34726 -0.525549,0.60926 l -0.09612,-0.13332 q 0.283704,-0.25115 0.407727,-0.5333 0.125574,-0.28371 0.125574,-0.67903 0,-0.40773 -0.128675,-0.68213 -0.128674,-0.2744 -0.404626,-0.52245 z m 3.81062,0 q 0.347266,0.262 0.5271,0.60771 0.179834,0.34417 0.179834,0.73329 0,0.38602 -0.181384,0.73329 -0.179834,0.34726 -0.52555,0.60926 l -0.09612,-0.13332 q 0.283704,-0.25115 0.407727,-0.5333 0.125574,-0.28371 0.125574,-0.67903 0,-0.40773 -0.128674,-0.68213 -0.128675,-0.2744 -0.404627,-0.52245 z m 3.81062,0 q 0.347266,0.262 0.5271,0.60771 0.179834,0.34417 0.179834,0.73329 0,0.38602 -0.181385,0.73329 -0.179834,0.34726 -0.525549,0.60926 l -0.09612,-0.13332 q 0.283704,-0.25115 0.407727,-0.5333 0.125574,-0.28371 0.125574,-0.67903 0,-0.40773 -0.128675,-0.68213 -0.128674,-0.2744 -0.404626,-0.52245 z m 4.781104,2.55023 -0.09457,0.13332 q -0.345715,-0.262 -0.5271,-0.60926 -0.181384,-0.34727 -0.181384,-0.73329 0,-0.38912 0.179834,-0.73329 0.179834,-0.34571 0.52865,-0.60771 l 0.09457,0.13332 q -0.283704,0.25425 -0.409278,0.5333 -0.124023,0.2775 -0.124023,0.67128 0,0.40773 0.128674,0.68678 0.130225,0.2775 0.404627,0.52555 z m 3.81062,0 -0.09457,0.13332 q -0.345715,-0.262 -0.527099,-0.60926 -0.181385,-0.34727 -0.181385,-0.73329 0,-0.38912 0.179834,-0.73329 0.179834,-0.34571 0.52865,-0.60771 l 0.09457,0.13332 q -0.283704,0.25425 -0.409277,0.5333 -0.124024,0.2775 -0.124024,0.67128 0,0.40773 0.128675,0.68678 0.130224,0.2775 0.404626,0.52555 z m 7.644495,-0.28216 h -0.229443 l -0.94878,-2.27117 h 0.230994 z m 1.90841,-2.27117 -0.950329,2.27117 h -0.227893 l 0.945678,-2.27117 z m 2.299084,2.92075 h -1.90531 v -0.20309 h 1.90531 z m 1.511536,-2.92075 -0.95033,2.27117 h -0.227893 l 0.945679,-2.27117 z m 6.6244,0.003 q 0.347266,0.262 0.5271,0.60771 0.179834,0.34417 0.179834,0.73329 0,0.38602 -0.181385,0.73329 -0.179834,0.34726 -0.525549,0.60926 l -0.09612,-0.13332 q 0.283703,-0.25115 0.407727,-0.5333 0.125574,-0.28371 0.125574,-0.67903 0,-0.40773 -0.128675,-0.68213 -0.128674,-0.2744 -0.404626,-0.52245 z m 3.810623,0 q 0.347266,0.262 0.5271,0.60771 0.179834,0.34417 0.179834,0.73329 0,0.38602 -0.181384,0.73329 -0.179834,0.34726 -0.52555,0.60926 l -0.09612,-0.13332 q 0.283704,-0.25115 0.407727,-0.5333 0.125574,-0.28371 0.125574,-0.67903 0,-0.40773 -0.128674,-0.68213 -0.128675,-0.2744 -0.404627,-0.52245 z m 2.875791,2.55023 -0.09457,0.13332 q -0.345715,-0.262 -0.527099,-0.60926 -0.181384,-0.34727 -0.181384,-0.73329 0,-0.38912 0.179834,-0.73329 0.179834,-0.34571 0.528649,-0.60771 l 0.09457,0.13332 q -0.283703,0.25425 -0.409277,0.5333 -0.124023,0.2775 -0.124023,0.67128 0,0.40773 0.128674,0.68678 0.130225,0.2775 0.404626,0.52555 z m 2.325441,0.36742 h -1.90531 v -0.20309 h 1.90531 z m 2.420007,-2.91765 q 0.347266,0.262 0.5271,0.60771 0.179834,0.34417 0.179834,0.73329 0,0.38602 -0.181385,0.73329 -0.179834,0.34726 -0.525549,0.60926 l -0.09612,-0.13332 q 0.283703,-0.25115 0.407727,-0.5333 0.125574,-0.28371 0.125574,-0.67903 0,-0.40773 -0.128675,-0.68213 -0.128674,-0.2744 -0.404626,-0.52245 z m 3.810619,0 q 0.347266,0.262 0.5271,0.60771 0.179834,0.34417 0.179834,0.73329 0,0.38602 -0.181384,0.73329 -0.179834,0.34726 -0.52555,0.60926 l -0.09612,-0.13332 q 0.283704,-0.25115 0.407727,-0.5333 0.125574,-0.28371 0.125574,-0.67903 0,-0.40773 -0.128674,-0.68213 -0.128675,-0.2744 -0.404627,-0.52245 z m 5.715931,0 q 0.347266,0.262 0.5271,0.60771 0.179834,0.34417 0.179834,0.73329 0,0.38602 -0.181384,0.73329 -0.179834,0.34726 -0.52555,0.60926 l -0.09612,-0.13332 q 0.283704,-0.25115 0.407727,-0.5333 0.125574,-0.28371 0.125574,-0.67903 0,-0.40773 -0.128674,-0.68213 -0.128675,-0.2744 -0.404627,-0.52245 z m 3.81062,0 q 0.347265,0.262 0.527099,0.60771 0.179834,0.34417 0.179834,0.73329 0,0.38602 -0.181384,0.73329 -0.179834,0.34726 -0.525549,0.60926 l -0.09612,-0.13332 q 0.283704,-0.25115 0.407727,-0.5333 0.125574,-0.28371 0.125574,-0.67903 0,-0.40773 -0.128674,-0.68213 -0.128674,-0.2744 -0.404627,-0.52245 z m 3.810623,0 q 0.34727,0.262 0.5271,0.60771 0.17983,0.34417 0.17983,0.73329 0,0.38602 -0.18138,0.73329 -0.17983,0.34726 -0.52555,0.60926 l -0.0961,-0.13332 q 0.28371,-0.25115 0.40773,-0.5333 0.12557,-0.28371 0.12557,-0.67903 0,-0.40773 -0.12867,-0.68213 -0.12868,-0.2744 -0.40463,-0.52245 z m 3.81062,0 q 0.34726,0.262 0.52709,0.60771 0.17984,0.34417 0.17984,0.73329 0,0.38602 -0.18139,0.73329 -0.17983,0.34726 -0.52554,0.60926 l -0.0961,-0.13332 q 0.2837,-0.25115 0.40772,-0.5333 0.12558,-0.28371 0.12558,-0.67903 0,-0.40773 -0.12868,-0.68213 -0.12867,-0.2744 -0.40462,-0.52245 z m 3.81062,0 q 0.34726,0.262 0.5271,0.60771 0.17983,0.34417 0.17983,0.73329 0,0.38602 -0.18138,0.73329 -0.17984,0.34726 -0.52555,0.60926 l -0.0961,-0.13332 q 0.2837,-0.25115 0.40773,-0.5333 0.12557,-0.28371 0.12557,-0.67903 0,-0.40773 -0.12867,-0.68213 -0.12868,-0.2744 -0.40463,-0.52245 z m 6.71276,-0.003 -0.95033,2.27117 h -0.22789 l 0.94568,-2.27117 z m 3.81063,0 -0.95033,2.27117 h -0.2279 l 0.94568,-2.27117 z m 4.20439,2.92075 h -1.90531 v -0.20309 h 1.90531 z m 3.41375,-0.64958 h -0.22945 l -0.94878,-2.27117 h 0.231 z m 3.81062,0 h -0.22944 l -0.94878,-2.27117 h 0.23099 z m 6.6275,-2.26807 q 0.34726,0.262 0.5271,0.60771 0.17983,0.34417 0.17983,0.73329 0,0.38602 -0.18138,0.73329 -0.17984,0.34726 -0.52555,0.60926 l -0.0961,-0.13332 q 0.2837,-0.25115 0.40773,-0.5333 0.12557,-0.28371 0.12557,-0.67903 0,-0.40773 -0.12867,-0.68213 -0.12868,-0.2744 -0.40463,-0.52245 z m 3.81061,0 q 0.34727,0.262 0.5271,0.60771 0.17984,0.34417 0.17984,0.73329 0,0.38602 -0.18139,0.73329 -0.17983,0.34726 -0.52555,0.60926 l -0.0961,-0.13332 q 0.2837,-0.25115 0.40772,-0.5333 0.12558,-0.28371 0.12558,-0.67903 0,-0.40773 -0.12868,-0.68213 -0.12867,-0.2744 -0.40462,-0.52245 z m 4.80437,2.26807 h -0.22945 l -0.94878,-2.27117 h 0.231 z m 3.78736,0.28216 -0.0946,0.13332 q -0.34572,-0.262 -0.5271,-0.60926 -0.18139,-0.34727 -0.18139,-0.73329 0,-0.38912 0.17984,-0.73329 0.17983,-0.34571 0.52865,-0.60771 l 0.0946,0.13332 q -0.2837,0.25425 -0.40927,0.5333 -0.12403,0.2775 -0.12403,0.67128 0,0.40773 0.12868,0.68678 0.13022,0.2775 0.40462,0.52555 z m 3.81062,0 -0.0946,0.13332 q -0.34571,-0.262 -0.5271,-0.60926 -0.18138,-0.34727 -0.18138,-0.73329 0,-0.38912 0.17983,-0.73329 0.17984,-0.34571 0.52865,-0.60771 l 0.0946,0.13332 q -0.2837,0.25425 -0.40928,0.5333 -0.12402,0.2775 -0.12402,0.67128 0,0.40773 0.12867,0.68678 0.13023,0.2775 0.40463,0.52555 z m 5.73919,-0.28216 h -0.22944 l -0.94878,-2.27117 h 0.23099 z m 1.88205,0.28216 -0.0946,0.13332 q -0.34571,-0.262 -0.5271,-0.60926 -0.18138,-0.34727 -0.18138,-0.73329 0,-0.38912 0.17983,-0.73329 0.17984,-0.34571 0.52865,-0.60771 l 0.0946,0.13332 q -0.2837,0.25425 -0.40928,0.5333 -0.12402,0.2775 -0.12402,0.67128 0,0.40773 0.12867,0.68678 0.13023,0.2775 0.40463,0.52555 z m 2.32544,0.36742 h -1.90531 v -0.20309 h 1.90531 z m 1.9053,0 h -1.90531 v -0.20309 h 1.90531 z m 1.90532,0 h -1.90531 v -0.20309 h 1.90531 z m 5.71593,0 h -1.90531 v -0.20309 h 1.90531 z m 1.9053,0 h -1.90531 v -0.20309 h 1.90531 z m 1.50845,-0.64958 h -0.22945 l -0.94877,-2.27117 h 0.23099 z m 1.9084,-2.27117 -0.95033,2.27117 h -0.22789 l 0.94568,-2.27117 z"
         id="path911" /><path
         style="stroke-width:0.565"
         d="m 36.368945,154.0877 -0.95033,2.27117 h -0.227893 l 0.945679,-2.27117 z m 2.299084,2.92075 h -1.90531 v -0.20309 h 1.90531 z m 1.511535,-2.92075 -0.950329,2.27117 h -0.227893 l 0.945679,-2.27117 z m 3.810621,0 -0.95033,2.27117 h -0.227893 l 0.945679,-2.27117 z m 3.807519,2.27117 h -0.229443 l -0.948779,-2.27117 h 0.230993 z m 3.810621,0 h -0.229444 l -0.948779,-2.27117 h 0.230994 z m 2.302184,0.64958 h -1.90531 v -0.20309 h 1.90531 z m 1.508435,-0.64958 h -0.229443 l -0.948779,-2.27117 h 0.230993 z m 7.624341,-2.27117 -0.950329,2.27117 h -0.227893 l 0.945678,-2.27117 z m 1.902209,2.27117 h -0.229443 l -0.948779,-2.27117 h 0.230993 z m 2.302185,0.64958 h -1.90531 v -0.20309 h 1.90531 z m 1.508437,-0.64958 h -0.229444 l -0.948779,-2.27117 h 0.230994 z m 3.81372,-2.27117 -0.95033,2.27117 h -0.227893 l 0.945679,-2.27117 z m 3.810619,0 -0.95033,2.27117 h -0.227893 l 0.945679,-2.27117 z m 4.204394,2.92075 h -1.90531 v -0.20309 h 1.90531 z m 1.905311,0 h -1.90531 v -0.20309 h 1.90531 z m 1.511534,-2.92075 -0.95033,2.27117 h -0.227893 l 0.945679,-2.27117 z m 3.810623,0 -0.95033,2.27117 h -0.227893 l 0.945679,-2.27117 z m 5.715927,0 -0.95033,2.27117 H 92.350021 L 93.2957,154.0877 Z m 2.299086,2.92075 h -1.90531 v -0.20309 h 1.90531 z m 1.511537,-2.92075 -0.950329,2.27117 h -0.227893 l 0.945678,-2.27117 z m 3.810623,0 -0.95033,2.27117 h -0.227896 l 0.945676,-2.27117 z m 2.29908,2.92075 h -1.90531 v -0.20309 h 1.90531 z m 1.51153,-2.92075 -0.95033,2.27117 h -0.22789 l 0.94568,-2.27117 z m 2.29909,2.92075 h -1.90531 v -0.20309 h 1.90531 z m 1.51154,-2.92075 -0.95033,2.27117 h -0.2279 l 0.94568,-2.27117 z m 7.61813,2.27117 h -0.22944 l -0.94878,-2.27117 h 0.23099 z m 3.81063,0 h -0.22945 l -0.94878,-2.27117 h 0.231 z m 1.88205,0.28216 -0.0946,0.13332 q -0.34572,-0.262 -0.5271,-0.60926 -0.18139,-0.34727 -0.18139,-0.73329 0,-0.38912 0.17984,-0.73329 0.17983,-0.34571 0.52865,-0.60771 l 0.0946,0.13332 q -0.2837,0.25425 -0.40927,0.5333 -0.12403,0.2775 -0.12403,0.67128 0,0.40773 0.12868,0.68678 0.13022,0.2775 0.40462,0.52555 z m 2.32544,0.36742 h -1.90531 v -0.20309 h 1.90531 z m 0.5147,-2.91765 q 0.34726,0.262 0.5271,0.60771 0.17983,0.34417 0.17983,0.73329 0,0.38602 -0.18138,0.73329 -0.17984,0.34726 -0.52555,0.60926 l -0.0961,-0.13332 q 0.2837,-0.25115 0.40772,-0.5333 0.12558,-0.28371 0.12558,-0.67903 0,-0.40773 -0.12868,-0.68213 -0.12867,-0.2744 -0.40462,-0.52245 z m 2.90215,-0.003 -0.95033,2.27117 h -0.2279 l 0.94568,-2.27117 z m 3.81062,0 -0.95033,2.27117 h -0.22789 l 0.94568,-2.27117 z m 5.71593,0 -0.95033,2.27117 h -0.2279 l 0.94568,-2.27117 z m 2.29908,2.92075 h -1.90531 v -0.20309 h 1.90531 z m 1.51154,-2.92075 -0.95033,2.27117 h -0.22789 l 0.94568,-2.27117 z m 7.61814,2.27117 h -0.22945 l -0.94878,-2.27117 h 0.231 z m 3.81061,0 h -0.22944 l -0.94878,-2.27117 h 0.23099 z m 2.30219,0.64958 h -1.90531 v -0.20309 h 1.90531 z m 1.50844,-0.64958 h -0.22945 l -0.94878,-2.27117 h 0.231 z m 7.62434,-2.27117 -0.95033,2.27117 h -0.2279 l 0.94568,-2.27117 z m 3.81062,0 -0.95033,2.27117 h -0.22789 l 0.94567,-2.27117 z m 3.81062,0 -0.95033,2.27117 h -0.22789 l 0.94568,-2.27117 z"
         id="path912" /><path
         style="stroke-width:0.565"
         d="m 36.365844,160.32762 h -0.229443 l -0.94878,-2.27117 h 0.230994 z m 3.81062,0 h -0.229443 l -0.94878,-2.27117 h 0.230994 z m 3.81062,0 h -0.229443 l -0.948779,-2.27117 h 0.230993 z m 2.302185,0.64958 h -1.90531 v -0.20309 h 1.90531 z m 1.511536,-2.92075 -0.95033,2.27117 h -0.227893 l 0.945679,-2.27117 z m 3.81062,0 -0.950329,2.27117 h -0.227893 l 0.945678,-2.27117 z m 3.81062,0 -0.95033,2.27117 h -0.227893 l 0.945679,-2.27117 z m 5.715931,0 -0.95033,2.27117 h -0.227893 l 0.945679,-2.27117 z m 3.810619,0 -0.95033,2.27117 h -0.227893 l 0.945679,-2.27117 z m 3.810621,0 -0.950329,2.27117 h -0.227893 l 0.945678,-2.27117 z m 3.807519,2.27117 h -0.229443 l -0.94878,-2.27117 h 0.230994 z m 3.810619,0 h -0.229443 l -0.948779,-2.27117 h 0.230993 z m 6.112806,0.64958 h -1.90531 v -0.20309 h 1.90531 z m 1.508433,-0.64958 H 83.76915 l -0.94878,-2.27117 h 0.230994 z m 3.810623,0 h -0.229443 l -0.948779,-2.27117 h 0.230993 z m 5.715927,0 H 93.2957 l -0.948779,-2.27117 h 0.230993 z m 3.810624,0 h -0.229444 l -0.948779,-2.27117 h 0.230994 z m 3.810623,0 h -0.22945 l -0.948777,-2.27117 h 0.230997 z m 3.81061,0 h -0.22944 l -0.94878,-2.27117 h 0.23099 z m 3.81062,0 h -0.22944 l -0.94878,-2.27117 h 0.231 z m 7.62434,-2.27117 -0.95033,2.27117 h -0.22789 l 0.94568,-2.27117 z m 3.81063,0 -0.95033,2.27117 h -0.2279 l 0.94568,-2.27117 z m 4.20439,2.92075 h -1.90531 v -0.20309 h 1.90531 z m 3.41375,-0.64958 h -0.22945 l -0.94878,-2.27117 h 0.231 z m 3.81062,0 h -0.22944 l -0.94878,-2.27117 h 0.23099 z m 5.71593,0 h -0.22945 l -0.94878,-2.27117 h 0.231 z m 3.81062,0 h -0.22944 l -0.94878,-2.27117 h 0.23099 z m 3.81061,0 h -0.22944 l -0.94878,-2.27117 h 0.231 z m 7.62434,-2.27117 -0.95033,2.27117 h -0.22789 l 0.94568,-2.27117 z m 3.81063,0 -0.95033,2.27117 h -0.2279 l 0.94568,-2.27117 z m 5.68957,2.55333 -0.0946,0.13332 q -0.34571,-0.262 -0.5271,-0.60926 -0.18138,-0.34727 -0.18138,-0.73329 0,-0.38912 0.17983,-0.73329 0.17984,-0.34571 0.52865,-0.60771 l 0.0946,0.13332 q -0.2837,0.25425 -0.40928,0.5333 -0.12402,0.2775 -0.12402,0.67128 0,0.40773 0.12867,0.68678 0.13023,0.2775 0.40463,0.52555 z m 3.81061,0 -0.0946,0.13332 q -0.34572,-0.262 -0.5271,-0.60926 -0.18139,-0.34727 -0.18139,-0.73329 0,-0.38912 0.17984,-0.73329 0.17983,-0.34571 0.52865,-0.60771 l 0.0946,0.13332 q -0.2837,0.25425 -0.40927,0.5333 -0.12403,0.2775 -0.12403,0.67128 0,0.40773 0.12868,0.68678 0.13022,0.2775 0.40462,0.52555 z m 3.81063,0 -0.0946,0.13332 q -0.34572,-0.262 -0.5271,-0.60926 -0.18138,-0.34727 -0.18138,-0.73329 0,-0.38912 0.17983,-0.73329 0.17983,-0.34571 0.52865,-0.60771 l 0.0946,0.13332 q -0.28371,0.25425 -0.40928,0.5333 -0.12402,0.2775 -0.12402,0.67128 0,0.40773 0.12867,0.68678 0.13023,0.2775 0.40463,0.52555 z"
         id="path913" /><path
         style="stroke-width:0.565"
         d="m 38.271154,164.29637 h -0.229443 l -0.94878,-2.27117 h 0.230994 z m 3.81062,0 h -0.229443 l -0.94878,-2.27117 h 0.230994 z m 7.624341,-2.27117 -0.95033,2.27117 h -0.227893 l 0.945679,-2.27117 z m 3.81062,0 -0.95033,2.27117 h -0.227893 l 0.945679,-2.27117 z m 5.689574,2.55333 -0.09457,0.13332 q -0.345715,-0.262 -0.527099,-0.60926 -0.181385,-0.34727 -0.181385,-0.73329 0,-0.38912 0.179834,-0.73329 0.179834,-0.34571 0.52865,-0.60771 l 0.09457,0.13332 q -0.283704,0.25425 -0.409277,0.5333 -0.124024,0.2775 -0.124024,0.67128 0,0.40773 0.128675,0.68678 0.130224,0.2775 0.404626,0.52555 z m 3.810621,0 -0.09457,0.13332 q -0.345715,-0.262 -0.527099,-0.60926 -0.181384,-0.34727 -0.181384,-0.73329 0,-0.38912 0.179834,-0.73329 0.179834,-0.34571 0.528649,-0.60771 l 0.09457,0.13332 q -0.283703,0.25425 -0.409277,0.5333 -0.124023,0.2775 -0.124023,0.67128 0,0.40773 0.128674,0.68678 0.130225,0.2775 0.404626,0.52555 z m 2.325439,0.36742 h -1.90531 v -0.20309 h 1.90531 z m 1.485181,-0.36742 -0.09457,0.13332 q -0.345715,-0.262 -0.5271,-0.60926 -0.181384,-0.34727 -0.181384,-0.73329 0,-0.38912 0.179834,-0.73329 0.179834,-0.34571 0.52865,-0.60771 l 0.09457,0.13332 q -0.283704,0.25425 -0.409278,0.5333 -0.124023,0.2775 -0.124023,0.67128 0,0.40773 0.128674,0.68678 0.130225,0.2775 0.404627,0.52555 z m 6.650755,-2.55023 q 0.347266,0.262 0.5271,0.60771 0.179834,0.34417 0.179834,0.73329 0,0.38602 -0.181385,0.73329 -0.179834,0.34726 -0.525549,0.60926 l -0.09612,-0.13332 q 0.283703,-0.25115 0.407727,-0.5333 0.125574,-0.28371 0.125574,-0.67903 0,-0.40773 -0.128675,-0.68213 -0.128674,-0.2744 -0.404626,-0.52245 z m 3.810623,0 q 0.347266,0.262 0.5271,0.60771 0.179834,0.34417 0.179834,0.73329 0,0.38602 -0.181384,0.73329 -0.179834,0.34726 -0.52555,0.60926 l -0.09612,-0.13332 q 0.283704,-0.25115 0.407727,-0.5333 0.125574,-0.28371 0.125574,-0.67903 0,-0.40773 -0.128674,-0.68213 -0.128675,-0.2744 -0.404627,-0.52245 z m 2.875791,2.55023 -0.09457,0.13332 q -0.345715,-0.262 -0.527099,-0.60926 -0.181384,-0.34727 -0.181384,-0.73329 0,-0.38912 0.179834,-0.73329 0.179834,-0.34571 0.528649,-0.60771 l 0.09457,0.13332 q -0.283703,0.25425 -0.409277,0.5333 -0.124023,0.2775 -0.124023,0.67128 0,0.40773 0.128674,0.68678 0.130225,0.2775 0.404626,0.52555 z m 2.325441,0.36742 h -1.90531 v -0.20309 h 1.90531 z m 1.905308,0 h -1.90531 v -0.20309 h 1.90531 z m 0.514699,-2.91765 q 0.347266,0.262 0.5271,0.60771 0.179834,0.34417 0.179834,0.73329 0,0.38602 -0.181385,0.73329 -0.179834,0.34726 -0.525549,0.60926 l -0.09612,-0.13332 q 0.283703,-0.25115 0.407727,-0.5333 0.125574,-0.28371 0.125574,-0.67903 0,-0.40773 -0.128675,-0.68213 -0.128674,-0.2744 -0.404626,-0.52245 z m 3.810619,0 q 0.347266,0.262 0.5271,0.60771 0.179834,0.34417 0.179834,0.73329 0,0.38602 -0.181384,0.73329 -0.179834,0.34726 -0.52555,0.60926 l -0.09612,-0.13332 q 0.283704,-0.25115 0.407727,-0.5333 0.125574,-0.28371 0.125574,-0.67903 0,-0.40773 -0.128674,-0.68213 -0.128675,-0.2744 -0.404627,-0.52245 z m 5.715931,0 q 0.347266,0.262 0.5271,0.60771 0.179834,0.34417 0.179834,0.73329 0,0.38602 -0.181384,0.73329 -0.179834,0.34726 -0.52555,0.60926 l -0.09612,-0.13332 q 0.283704,-0.25115 0.407727,-0.5333 0.125574,-0.28371 0.125574,-0.67903 0,-0.40773 -0.128674,-0.68213 -0.128675,-0.2744 -0.404627,-0.52245 z m 3.295925,2.91765 h -1.90531 v -0.20309 h 1.90531 z m 0.514695,-2.91765 q 0.347265,0.262 0.527099,0.60771 0.179834,0.34417 0.179834,0.73329 0,0.38602 -0.181384,0.73329 -0.179834,0.34726 -0.525549,0.60926 l -0.09612,-0.13332 q 0.283704,-0.25115 0.407727,-0.5333 0.125574,-0.28371 0.125574,-0.67903 0,-0.40773 -0.128674,-0.68213 -0.128674,-0.2744 -0.404627,-0.52245 z m 3.810623,0 q 0.34727,0.262 0.5271,0.60771 0.17983,0.34417 0.17983,0.73329 0,0.38602 -0.18138,0.73329 -0.17983,0.34726 -0.52555,0.60926 l -0.0961,-0.13332 q 0.28371,-0.25115 0.40773,-0.5333 0.12557,-0.28371 0.12557,-0.67903 0,-0.40773 -0.12867,-0.68213 -0.12868,-0.2744 -0.40463,-0.52245 z m 4.80435,2.26807 h -0.22944 l -0.94878,-2.27117 h 0.23099 z m 3.81063,0 h -0.22945 l -0.94878,-2.27117 h 0.231 z m 3.78736,0.28216 -0.0946,0.13332 q -0.34572,-0.262 -0.5271,-0.60926 -0.18138,-0.34727 -0.18138,-0.73329 0,-0.38912 0.17983,-0.73329 0.17983,-0.34571 0.52865,-0.60771 l 0.0946,0.13332 q -0.28371,0.25425 -0.40928,0.5333 -0.12402,0.2775 -0.12402,0.67128 0,0.40773 0.12867,0.68678 0.13023,0.2775 0.40463,0.52555 z m 3.81062,0 -0.0946,0.13332 q -0.34571,-0.262 -0.5271,-0.60926 -0.18138,-0.34727 -0.18138,-0.73329 0,-0.38912 0.17983,-0.73329 0.17984,-0.34571 0.52865,-0.60771 l 0.0946,0.13332 q -0.2837,0.25425 -0.40928,0.5333 -0.12402,0.2775 -0.12402,0.67128 0,0.40773 0.12867,0.68678 0.13023,0.2775 0.40463,0.52555 z m 2.32544,0.36742 h -1.90531 v -0.20309 h 1.90531 z m 1.48518,-0.36742 -0.0946,0.13332 q -0.34572,-0.262 -0.5271,-0.60926 -0.18139,-0.34727 -0.18139,-0.73329 0,-0.38912 0.17984,-0.73329 0.17983,-0.34571 0.52865,-0.60771 l 0.0946,0.13332 q -0.2837,0.25425 -0.40927,0.5333 -0.12403,0.2775 -0.12403,0.67128 0,0.40773 0.12868,0.68678 0.13022,0.2775 0.40462,0.52555 z m 2.84014,-2.55023 q 0.34726,0.262 0.5271,0.60771 0.17983,0.34417 0.17983,0.73329 0,0.38602 -0.18138,0.73329 -0.17984,0.34726 -0.52555,0.60926 l -0.0961,-0.13332 q 0.2837,-0.25115 0.40772,-0.5333 0.12558,-0.28371 0.12558,-0.67903 0,-0.40773 -0.12868,-0.68213 -0.12867,-0.2744 -0.40462,-0.52245 z m 3.29592,2.91765 h -1.90531 v -0.20309 h 1.90531 z m 0.5147,-2.91765 q 0.34726,0.262 0.5271,0.60771 0.17983,0.34417 0.17983,0.73329 0,0.38602 -0.18138,0.73329 -0.17984,0.34726 -0.52555,0.60926 l -0.0961,-0.13332 q 0.2837,-0.25115 0.40773,-0.5333 0.12557,-0.28371 0.12557,-0.67903 0,-0.40773 -0.12867,-0.68213 -0.12868,-0.2744 -0.40463,-0.52245 z m 3.81061,0 q 0.34727,0.262 0.5271,0.60771 0.17984,0.34417 0.17984,0.73329 0,0.38602 -0.18139,0.73329 -0.17983,0.34726 -0.52555,0.60926 l -0.0961,-0.13332 q 0.2837,-0.25115 0.40772,-0.5333 0.12558,-0.28371 0.12558,-0.67903 0,-0.40773 -0.12868,-0.68213 -0.12867,-0.2744 -0.40462,-0.52245 z m 5.71594,0 q 0.34726,0.262 0.5271,0.60771 0.17983,0.34417 0.17983,0.73329 0,0.38602 -0.18138,0.73329 -0.17984,0.34726 -0.52555,0.60926 l -0.0961,-0.13332 q 0.2837,-0.25115 0.40773,-0.5333 0.12557,-0.28371 0.12557,-0.67903 0,-0.40773 -0.12867,-0.68213 -0.12868,-0.2744 -0.40463,-0.52245 z m 3.29592,2.91765 h -1.90531 v -0.20309 h 1.90531 z m 0.51469,-2.91765 q 0.34727,0.262 0.5271,0.60771 0.17984,0.34417 0.17984,0.73329 0,0.38602 -0.18139,0.73329 -0.17983,0.34726 -0.52555,0.60926 l -0.0961,-0.13332 q 0.2837,-0.25115 0.40772,-0.5333 0.12558,-0.28371 0.12558,-0.67903 0,-0.40773 -0.12868,-0.68213 -0.12867,-0.2744 -0.40462,-0.52245 z m 4.80437,2.26807 h -0.22945 l -0.94878,-2.27117 h 0.231 z m 3.78736,0.28216 -0.0946,0.13332 q -0.34572,-0.262 -0.5271,-0.60926 -0.18139,-0.34727 -0.18139,-0.73329 0,-0.38912 0.17984,-0.73329 0.17983,-0.34571 0.52865,-0.60771 l 0.0946,0.13332 q -0.2837,0.25425 -0.40927,0.5333 -0.12403,0.2775 -0.12403,0.67128 0,0.40773 0.12868,0.68678 0.13022,0.2775 0.40462,0.52555 z m 2.32544,0.36742 h -1.90531 v -0.20309 h 1.90531 z m 1.48518,-0.36742 -0.0946,0.13332 q -0.34571,-0.262 -0.5271,-0.60926 -0.18138,-0.34727 -0.18138,-0.73329 0,-0.38912 0.17983,-0.73329 0.17984,-0.34571 0.52865,-0.60771 l 0.0946,0.13332 q -0.2837,0.25425 -0.40928,0.5333 -0.12402,0.2775 -0.12402,0.67128 0,0.40773 0.12867,0.68678 0.13023,0.2775 0.40463,0.52555 z m 9.5498,-0.28216 h -0.22944 l -0.94878,-2.27117 h 0.231 z m 3.81063,0 h -0.22945 l -0.94877,-2.27117 h 0.23099 z m 3.81062,0 h -0.22944 l -0.94878,-2.27117 h 0.23099 z"
         id="path914" /><path
         style="stroke-width:0.565"
         d="m 40.176464,168.26512 h -0.229443 l -0.94878,-2.27118 h 0.230994 z m 2.302185,0.64958 h -1.90531 v -0.20309 h 1.90531 z m 1.508435,-0.64958 h -0.229443 l -0.948779,-2.27118 h 0.230993 z m 2.302185,0.64958 h -1.90531 v -0.20309 h 1.90531 z m 1.511536,-2.92076 -0.95033,2.27118 h -0.227893 l 0.945679,-2.27118 z m 2.299084,2.92076 h -1.90531 v -0.20309 h 1.90531 z m 1.511536,-2.92076 -0.950329,2.27118 h -0.227893 l 0.945678,-2.27118 z m 9.52345,2.27118 h -0.229443 l -0.94878,-2.27118 h 0.230994 z m 1.90841,-2.27118 -0.950329,2.27118 h -0.227893 l 0.945678,-2.27118 z m 2.299084,2.92076 h -1.90531 v -0.20309 h 1.90531 z m 1.511536,-2.92076 -0.95033,2.27118 h -0.227893 l 0.945679,-2.27118 z m 7.618138,2.27118 h -0.229444 l -0.948779,-2.27118 h 0.230994 z m 1.908412,-2.27118 -0.95033,2.27118 h -0.227893 l 0.945679,-2.27118 z m 2.299086,2.92076 h -1.90531 v -0.20309 h 1.90531 z m 1.905308,0 h -1.90531 v -0.20309 h 1.90531 z m 1.905311,0 h -1.90531 v -0.20309 h 1.90531 z m 1.905308,0 h -1.90531 v -0.20309 h 1.90531 z m 1.508437,-0.64958 h -0.229444 l -0.948779,-2.27118 h 0.230994 z m 1.908412,-2.27118 -0.95033,2.27118 h -0.227893 l 0.945679,-2.27118 z m 7.618138,2.27118 h -0.229443 l -0.94878,-2.27118 h 0.230994 z m 2.302187,0.64958 h -1.90531 v -0.20309 h 1.90531 z m 1.508432,-0.64958 h -0.229443 l -0.948779,-2.27118 h 0.230993 z m 1.908416,-2.27118 -0.95033,2.27118 h -0.227896 l 0.945676,-2.27118 z m 3.80751,2.27118 h -0.22944 l -0.94878,-2.27118 h 0.23099 z m 2.30219,0.64958 h -1.90531 v -0.20309 h 1.90531 z m 1.50843,-0.64958 h -0.22944 l -0.94878,-2.27118 h 0.231 z m 1.90842,-2.27118 -0.95033,2.27118 h -0.2279 l 0.94568,-2.27118 z m 5.71282,2.27118 h -0.22944 l -0.94878,-2.27118 h 0.23099 z m 1.90842,-2.27118 -0.95033,2.27118 h -0.2279 l 0.94568,-2.27118 z m 2.29908,2.92076 h -1.90531 v -0.20309 h 1.90531 z m 1.51154,-2.92076 -0.95033,2.27118 h -0.22789 l 0.94567,-2.27118 z m 3.80751,2.27118 h -0.22944 l -0.94878,-2.27118 h 0.23099 z m 2.30219,0.64958 h -1.90531 v -0.20309 h 1.90531 z m 1.50844,-0.64958 h -0.22945 l -0.94878,-2.27118 h 0.231 z m 1.90841,-2.27118 -0.95033,2.27118 h -0.22789 l 0.94568,-2.27118 z m 7.61814,2.27118 h -0.22945 l -0.94878,-2.27118 h 0.231 z m 2.30218,0.64958 h -1.90531 v -0.20309 h 1.90531 z m 1.50843,-0.64958 h -0.22944 l -0.94878,-2.27118 h 0.23099 z m 1.90841,-2.27118 -0.95032,2.27118 h -0.2279 l 0.94568,-2.27118 z m 3.80753,2.27118 h -0.22945 l -0.94878,-2.27118 h 0.231 z m 1.90841,-2.27118 -0.95033,2.27118 h -0.22789 l 0.94568,-2.27118 z m 2.29908,2.92076 h -1.90531 v -0.20309 h 1.90531 z m 1.51154,-2.92076 -0.95033,2.27118 h -0.2279 l 0.94568,-2.27118 z m 9.52655,0 -0.95033,2.27118 h -0.2279 l 0.94568,-2.27118 z m 2.29907,2.92076 h -1.90531 v -0.20309 h 1.90531 z m 1.51155,-2.92076 -0.95033,2.27118 h -0.22789 l 0.94567,-2.27118 z m 2.29908,2.92076 h -1.90531 v -0.20309 h 1.90531 z m 1.51154,-2.92076 -0.95033,2.27118 h -0.22789 l 0.94568,-2.27118 z"
         id="path915" /></g><circle
       style="font-variation-settings:'wght' 400;fill:#050410;fill-opacity:1;stroke:#000000;stroke-width:0.564999;stroke-linecap:square;stroke-linejoin:round;stroke-dasharray:none;stroke-dashoffset:0;stroke-opacity:1;paint-order:fill markers stroke"
       id="path900"
       cx="42.866123"
       cy="177.41977"
       r="3.9557874" /><circle
       style="font-variation-settings:'wght' 400;fill:#050410;fill-opacity:1;stroke:#000000;stroke-width:0.564999;stroke-linecap:square;stroke-linejoin:round;stroke-dasharray:none;stroke-dashoffset:0;stroke-opacity:1;paint-order:fill markers stroke"
       id="path900-9"
       cx="167.24033"
       cy="178.80801"
       r="3.9557874" /><path
       style="font-variation-settings:'wght' 400;fill:none;fill-opacity:1;stroke:#000000;stroke-width:0.865;stroke-linecap:square;stroke-linejoin:round;stroke-dasharray:none;stroke-dashoffset:0;stroke-opacity:1;paint-order:fill markers stroke"
       d="m 164.41954,177.99088 c 0,0 -24.09996,-6.03061 -38.60421,-5.26995 -14.50425,0.76065 -32.551711,10.8638 -46.796496,11.47493 -14.244784,0.61113 -36.918199,-5.75774 -36.918199,-5.75774"
       id="path902"
       sodipodi:nodetypes="czzc" /><path
       style="font-variation-settings:'wght' 400;fill:none;fill-opacity:1;stroke:#000000;stroke-width:0.865;stroke-linecap:round;stroke-linejoin:round;stroke-dasharray:none;stroke-dashoffset:0;stroke-opacity:1;paint-order:fill markers stroke"
       d="m 38.953613,172.9031 c -3.369992,3.19483 -2.831491,6.21595 0.159211,9.12809"
       id="path903"
       sodipodi:nodetypes="cc" /><path
       style="font-variation-settings:'wght' 400;fill:none;fill-opacity:1;stroke:#000000;stroke-width:0.865;stroke-linecap:round;stroke-linejoin:round;stroke-dasharray:none;stroke-dashoffset:0;stroke-opacity:1;paint-order:fill markers stroke"
       d="m 35.552571,174.37535 c -1.450779,2.72111 -1.564395,3.5513 0.159211,6.46399"
       id="path903-5"
       sodipodi:nodetypes="cc" /><path
       style="font-variation-settings:'wght' 400;fill:none;fill-opacity:1;stroke:#000000;stroke-width:0.865;stroke-linecap:round;stroke-linejoin:round;stroke-dasharray:none;stroke-dashoffset:0;stroke-opacity:1;paint-order:fill markers stroke"
       d="m 33.036476,175.68961 c -0.486881,1.01779 -0.526308,2.07625 -0.01156,3.1851"
       id="path903-5-7"
       sodipodi:nodetypes="cc" /><path
       style="font-variation-settings:'wght' 400;fill:none;fill-opacity:1;stroke:#000000;stroke-width:0.865;stroke-linecap:round;stroke-linejoin:round;stroke-dasharray:none;stroke-dashoffset:0;stroke-opacity:1;paint-order:fill markers stroke"
       d="m 170.84879,174.57528 c 3.36999,3.19483 2.83149,6.21595 -0.15921,9.12809"
       id="path903-0"
       sodipodi:nodetypes="cc" /><path
       style="font-variation-settings:'wght' 400;fill:none;fill-opacity:1;stroke:#000000;stroke-width:0.865;stroke-linecap:round;stroke-linejoin:round;stroke-dasharray:none;stroke-dashoffset:0;stroke-opacity:1;paint-order:fill markers stroke"
       d="m 174.24983,176.04753 c 1.45078,2.72111 1.5644,3.5513 -0.15921,6.46399"
       id="path903-5-2"
       sodipodi:nodetypes="cc" /><path
       style="font-variation-settings:'wght' 400;fill:none;fill-opacity:1;stroke:#000000;stroke-width:0.865;stroke-linecap:round;stroke-linejoin:round;stroke-dasharray:none;stroke-dashoffset:0;stroke-opacity:1;paint-order:fill markers stroke"
       d="m 176.76593,177.36179 c 0.48688,1.01779 0.52631,2.07625 0.0116,3.1851"
       id="path903-5-7-1"
       sodipodi:nodetypes="cc" /></g></svg>
